<?xml version="1.0" encoding="UTF-8" standalone="no"?>
<!-- Created with Inkscape (http://www.inkscape.org/) -->
<svg
   xmlns:dc="http://purl.org/dc/elements/1.1/"
   xmlns:cc="http://web.resource.org/cc/"
   xmlns:rdf="http://www.w3.org/1999/02/22-rdf-syntax-ns#"
   xmlns:svg="http://www.w3.org/2000/svg"
   xmlns="http://www.w3.org/2000/svg"
   xmlns:xlink="http://www.w3.org/1999/xlink"
   xmlns:sodipodi="http://sodipodi.sourceforge.net/DTD/sodipodi-0.dtd"
   xmlns:inkscape="http://www.inkscape.org/namespaces/inkscape"
   width="470.51785"
   height="213.94823"
   id="svg2"
   sodipodi:version="0.32"
   inkscape:version="0.44+devel"
   version="1.0"
   sodipodi:docbase="C:\Documents and Settings\James\                  "
   sodipodi:docname="recorde.2007_02_25_23_28_16.svg"
   inkscape:output_extension="org.inkscape.output.svg.inkscape">
  <sodipodi:namedview
     id="base"
     pagecolor="#ffffff"
     bordercolor="#666666"
     borderopacity="1.0"
     gridtolerance="10000"
     guidetolerance="10"
     objecttolerance="10"
     inkscape:pageopacity="0.0"
     inkscape:pageshadow="2"
     inkscape:zoom="0.88516892"
     inkscape:cx="91.430537"
     inkscape:cy="326.90995"
     inkscape:document-units="px"
     inkscape:current-layer="layer1"
     inkscape:window-width="1152"
     inkscape:window-height="841"
     inkscape:window-x="0"
     inkscape:window-y="0" />
  <defs
     id="defs4">
    <linearGradient
       y2="0.5"
       y1="0.5"
       xlink:href="#linearGradient830"
       x2="1"
       x1="-1.0164395e-018"
       id="linearGradient834" />
    <radialGradient
       xlink:href="#linearGradient830"
       id="radialGradient833" />
    <linearGradient
       id="linearGradient830">
      <stop
         style="stop-color:#000;stop-opacity:1;"
         offset="0"
         id="stop831" />
      <stop
         style="stop-color:#fff;stop-opacity:1;"
         offset="1"
         id="stop832" />
    </linearGradient>
  </defs>
  <metadata
     id="metadata7">
    <rdf:RDF>
      <cc:Work
         rdf:about="">
        <dc:format>image/svg+xml</dc:format>
        <dc:type
           rdf:resource="http://purl.org/dc/dcmitype/StillImage" />
      </cc:Work>
    </rdf:RDF>
  </metadata>
  <g
     inkscape:label="Layer 1"
     id="layer1"
     transform="translate(-329.63113,-317.85029)"
     inkscape:groupmode="layer">
    <path
       style="opacity:1;fill:#ffeeaa;fill-opacity:1;fill-rule:nonzero;stroke:none;stroke-width:1;stroke-linecap:round;stroke-miterlimit:4;stroke-dasharray:none;stroke-dashoffset:0;stroke-opacity:1"
       d="M 160.42136,87.534055 C 251.92932,86.404327 460.92897,110.12861 474.48571,163.22582 C 488.04244,216.32303 434.94523,276.19861 380.71829,279.58779 C 326.49135,282.97698 67.783672,253.60405 64.394489,208.41494 C 61.005305,163.22582 93.767413,89.793511 160.42136,87.534055 z"
       id="path2201"
       transform="translate(286.61507,243.23069)" />
    <path
       style="opacity:1;fill:none;fill-opacity:1;fill-rule:nonzero;stroke:#000000;stroke-width:1;stroke-linecap:round;stroke-miterlimit:4;stroke-dasharray:none;stroke-dashoffset:0;stroke-opacity:1"
       d="M 70.043128,210.67439 C 115.23224,115.77725 208.99966,108.99888 302.76707,188.07983 C 387.06893,259.17777 476.74517,177.91228 483.52353,129.33399"
       sodipodi:nodetypes="csc"
       transform="translate(273.82273,197.27724)"
       id="path2307" />
    <path
       id="path2539"
       transform="translate(276.83983,224.24259)"
       sodipodi:nodetypes="csc"
       d="M 70.043128,210.67439 C 115.23224,115.77725 208.99966,108.99888 302.76707,188.07983 C 387.06893,259.17777 476.74517,177.91228 483.52353,129.33399"
       style="opacity:1;fill:none;fill-opacity:1;fill-rule:nonzero;stroke:#000000;stroke-width:1;stroke-linecap:round;stroke-miterlimit:4;stroke-dasharray:none;stroke-dashoffset:0;stroke-opacity:1" />
    <path
       style="opacity:1;fill:none;fill-opacity:1;fill-rule:nonzero;stroke:#000000;stroke-width:1;stroke-linecap:round;stroke-miterlimit:4;stroke-dasharray:none;stroke-dashoffset:0;stroke-opacity:1"
       d="M 70.043128,210.67439 C 115.23224,115.77725 208.99966,108.99888 302.76707,188.07983 C 387.06893,259.17777 476.74517,177.91228 483.52353,129.33399"
       sodipodi:nodetypes="csc"
       transform="translate(276.83983,251.20794)"
       id="path2541" />
    <path
       id="path2543"
       transform="translate(281.36549,278.92757)"
       sodipodi:nodetypes="csc"
       d="M 70.043128,210.67439 C 115.23224,115.77725 208.99966,108.99888 302.76707,188.07983 C 387.06893,259.17777 476.74517,177.91228 483.52353,129.33399"
       style="opacity:1;fill:none;fill-opacity:1;fill-rule:nonzero;stroke:#000000;stroke-width:1;stroke-linecap:round;stroke-miterlimit:4;stroke-dasharray:none;stroke-dashoffset:0;stroke-opacity:1" />
    <path
       style="opacity:1;fill:none;fill-opacity:1;fill-rule:nonzero;stroke:#000000;stroke-width:1;stroke-linecap:round;stroke-miterlimit:4;stroke-dasharray:none;stroke-dashoffset:0;stroke-opacity:1"
       d="M 70.043128,210.67439 C 115.23224,115.77725 208.99966,108.99888 302.76707,188.07983 C 387.06893,259.17777 476.74517,177.91228 483.52353,129.33399"
       sodipodi:nodetypes="csc"
       transform="translate(284.38259,306.64719)"
       id="path2545" />
    <path
       style="fill:#000000;fill-opacity:1;fill-rule:nonzero;stroke:none;stroke-width:0.54175824;stroke-linecap:butt;stroke-linejoin:miter;stroke-miterlimit:4;stroke-dasharray:none;stroke-opacity:1"
       d="M 22.5625,9.84375 C 22.21054,9.8804787 21.89599,10.057818 21.6875,10.34375 C 21.47901,10.629682 21.39611,10.997414 21.46875,11.34375 C 24.562309,27.695418 25.697314,42.083831 24.9375,55.53125 C 23.126388,53.287551 20.17468,51.812501 16.84375,51.8125 C 11.339695,51.8125 6.8749998,55.80216 6.875,60.71875 C 6.875,65.63534 11.339695,69.625002 16.84375,69.625 C 21.730902,69.625 25.805394,66.490733 26.65625,62.34375 C 26.840665,62.148845 26.971233,61.912648 27,61.625 C 28.265127,48.973815 27.731816,35.5695 25.53125,20.71875 C 33.013622,25.802715 40.745269,30.71123 51.125,33.25 C 51.820375,37.659443 52.363367,43.079488 52.5625,48.5625 C 52.805984,55.266658 52.489981,61.997903 51.5625,66.78125 C 49.973496,63.744466 46.529539,61.625001 42.53125,61.625 C 37.027195,61.625 32.562501,65.614659 32.5625,70.53125 C 32.5625,75.44784 37.027194,79.437497 42.53125,79.4375 C 47.065328,79.4375 50.884515,76.734053 52.09375,73.03125 C 52.177488,72.945551 52.254269,72.861741 52.3125,72.75 C 54.93842,67.689155 55.4128,58.145401 55.0625,48.5 C 54.7122,38.854599 53.43781,29.341817 51.8125,24.625 C 51.67156,24.215466 51.32868,23.908062 50.90625,23.8125 C 39.70956,21.205233 31.71919,15.745835 23.40625,10.0625 C 23.16035,9.8907192 22.86089,9.8130797 22.5625,9.84375 z M 24.40625,13.71875 C 31.76008,18.705105 39.4041,23.477734 49.5625,26 C 49.936178,27.172796 50.310095,28.730295 50.65625,30.53125 C 40.40121,27.810543 32.828749,22.695745 25,17.34375 C 24.803446,16.135718 24.624334,14.946587 24.40625,13.71875 z"
       transform="matrix(1.4373625,0,0,1.2817685,371.76439,311.40768)"
       id="path54110" />
    <path
       style="fill:#000000;fill-opacity:1;fill-rule:nonzero;stroke:none;stroke-width:0.54175824;stroke-linecap:butt;stroke-linejoin:miter;stroke-miterlimit:4;stroke-dasharray:none;stroke-opacity:1"
       d="M -69.90625,114.71875 C -70.012439,114.71151 -70.142776,114.74017 -70.25,114.75 C -70.755896,114.79708 -71.200324,115.0085 -71.5,115.375 C -71.799679,115.7415 -71.91691,116.21233 -71.8125,116.65625 C -67.365931,137.6153 -65.720372,156.07602 -66.8125,173.3125 C -69.415725,170.43659 -73.680996,168.53125 -78.46875,168.53125 C -86.380074,168.53125 -92.78125,173.63557 -92.78125,179.9375 C -92.781246,186.23943 -86.380072,191.375 -78.46875,191.375 C -71.444142,191.37499 -65.566739,187.34672 -64.34375,182.03125 C -64.078679,181.78143 -63.885099,181.46245 -63.84375,181.09375 C -62.025306,164.87785 -62.805739,147.72272 -65.96875,128.6875 L -69.03125,115.03125 C -69.296338,114.86611 -69.587684,114.74048 -69.90625,114.71875 z"
       transform="matrix(-1,0,0,-1,411.73789,544.03443)"
       id="path2567"
       sodipodi:nodetypes="cssccssscsccc" />
    <path
       id="path2575"
       transform="matrix(1.4373625,0,0,1.2817685,505.34927,367.58824)"
       d="M 50.65625,30.53125 C 51.002405,32.332205 50.429625,28.840557 51.125,33.25 C 51.820375,37.659443 52.363367,43.079488 52.5625,48.5625 C 52.805984,55.266658 53.133924,55.540234 53.733937,55.580121 C 52.144933,52.543337 48.700976,50.423872 44.702687,50.423871 C 39.198632,50.423871 34.733938,54.41353 34.733937,59.330121 C 34.733937,64.246711 39.198631,68.236368 44.702687,68.236371 C 49.236765,68.236371 53.055952,65.532924 54.265187,61.830121 C 54.348925,61.744422 54.463286,61.676204 54.483937,61.548871 C 55.034032,58.157021 55.4128,58.145401 55.0625,48.5 C 54.7122,38.854599 53.43781,29.341817 51.8125,24.625 C 51.67156,24.215466 51.32868,23.908062 50.90625,23.8125 C 39.70956,21.205233 31.71919,15.745835 23.40625,10.0625 C 23.16035,9.8907192 22.86089,9.8130797 22.5625,9.84375 C 22.21054,9.8804787 21.89599,10.057818 21.6875,10.34375 C 21.47901,10.629682 21.39611,10.997414 21.46875,11.34375 C 24.562309,27.695418 25.697314,42.083831 24.9375,55.53125 C 23.126388,53.287551 20.17468,51.812501 16.84375,51.8125 C 11.339695,51.8125 6.8749998,55.80216 6.875,60.71875 C 6.875,65.63534 11.339695,69.625002 16.84375,69.625 C 21.730902,69.625 25.805394,66.490733 26.65625,62.34375 C 26.840665,62.148845 26.971233,61.912648 27,61.625 C 28.265127,48.973815 27.731816,35.5695 25.53125,20.71875 C 23.330684,5.868 25.196554,18.551782 25,17.34375 C 24.803446,16.135718 24.624334,14.946587 24.40625,13.71875 C 31.76008,18.705105 39.4041,23.477734 49.5625,26 C 49.936178,27.172796 50.310095,28.730295 50.65625,30.53125 z"
       style="fill:#000000;fill-opacity:1;fill-rule:nonzero;stroke:none;stroke-width:0.54175824;stroke-linecap:butt;stroke-linejoin:miter;stroke-miterlimit:4;stroke-dasharray:none;stroke-opacity:1"
       sodipodi:nodetypes="ccscssscssscccsccssscsccccc" />
    <path
       style="fill:#000000;fill-opacity:1;fill-rule:nonzero;stroke:none;stroke-width:0.54175824;stroke-linecap:butt;stroke-linejoin:miter;stroke-miterlimit:4;stroke-dasharray:none;stroke-opacity:1"
       d="M -69.90625,114.71875 C -70.012439,114.71151 -70.142776,114.74017 -70.25,114.75 C -70.755896,114.79708 -71.200324,115.0085 -71.5,115.375 C -71.799679,115.7415 -71.91691,116.21233 -71.8125,116.65625 C -67.365931,137.6153 -65.720372,156.07602 -66.8125,173.3125 C -69.415725,170.43659 -73.680996,168.53125 -78.46875,168.53125 C -86.380074,168.53125 -92.78125,173.63557 -92.78125,179.9375 C -92.781246,186.23943 -86.380072,191.375 -78.46875,191.375 C -71.444142,191.37499 -65.566739,187.34672 -64.34375,182.03125 C -64.078679,181.78143 -63.885099,181.46245 -63.84375,181.09375 C -62.025306,164.87785 -62.805739,147.72272 -65.96875,128.6875 L -69.03125,115.03125 C -69.296338,114.86611 -69.587684,114.74048 -69.90625,114.71875 z"
       transform="translate(704.49378,323.45335)"
       id="path2195"
       sodipodi:nodetypes="cssccssscsccc" />
    <path
       sodipodi:nodetypes="ccscssscssscccsccssscsccccc"
       style="fill:#000000;fill-opacity:1;fill-rule:nonzero;stroke:none;stroke-width:0.54175824;stroke-linecap:butt;stroke-linejoin:miter;stroke-miterlimit:4;stroke-dasharray:none;stroke-opacity:1"
       d="M 50.65625,30.53125 C 51.002405,32.332205 50.429625,28.840557 51.125,33.25 C 51.820375,37.659443 52.363367,43.079488 52.5625,48.5625 C 52.805984,55.266658 53.133924,55.540234 53.733937,55.580121 C 52.144933,52.543337 48.700976,50.423872 44.702687,50.423871 C 39.198632,50.423871 34.733938,54.41353 34.733937,59.330121 C 34.733937,64.246711 39.198631,68.236368 44.702687,68.236371 C 49.236765,68.236371 53.055952,65.532924 54.265187,61.830121 C 54.348925,61.744422 54.463286,61.676204 54.483937,61.548871 C 55.034032,58.157021 55.4128,58.145401 55.0625,48.5 C 54.7122,38.854599 53.43781,29.341817 51.8125,24.625 C 51.67156,24.215466 51.32868,23.908062 50.90625,23.8125 C 39.70956,21.205233 31.71919,15.745835 23.40625,10.0625 C 23.16035,9.8907192 22.86089,9.8130797 22.5625,9.84375 C 22.21054,9.8804787 21.89599,10.057818 21.6875,10.34375 C 21.47901,10.629682 21.39611,10.997414 21.46875,11.34375 C 24.562309,27.695418 25.697314,42.083831 24.9375,55.53125 C 23.126388,53.287551 20.17468,51.812501 16.84375,51.8125 C 11.339695,51.8125 6.8749998,55.80216 6.875,60.71875 C 6.875,65.63534 11.339695,69.625002 16.84375,69.625 C 21.730902,69.625 25.805394,66.490733 26.65625,62.34375 C 26.840665,62.148845 26.971233,61.912648 27,61.625 C 28.265127,48.973815 27.731816,35.5695 25.53125,20.71875 C 23.330684,5.868 25.196554,18.551782 25,17.34375 C 24.803446,16.135718 24.624334,14.946587 24.40625,13.71875 C 31.76008,18.705105 39.4041,23.477734 49.5625,26 C 49.936178,27.172796 50.310095,28.730295 50.65625,30.53125 z"
       transform="matrix(1.4373625,0,0,1.2817685,663.51117,410.5179)"
       id="path2197" />
    <g
       id="g2281"
       transform="matrix(0.3634719,0.9316051,-0.9316051,0.3634719,908.48314,-44.931691)">
      <path
         style="fill:#803300;fill-opacity:1;fill-rule:nonzero;stroke:#000000;stroke-width:1;stroke-linecap:round;stroke-miterlimit:4;stroke-dashoffset:0;stroke-opacity:1"
         id="path2261"
         d="M 296.11323,675.51925 C 306.50475,678.6776 316.65185,678.16982 326.65611,675.51925 L 324.67437,647.35772 L 298.09497,647.35772 L 296.11323,675.51925 z" />
      <path
         style="fill:#803300;fill-opacity:1;fill-rule:nonzero;stroke:#000000;stroke-width:1;stroke-linecap:round;stroke-miterlimit:4;stroke-dashoffset:0;stroke-opacity:1"
         id="path2259"
         d="M 298.51218,637.86624 C 307.48412,645.47676 315.99095,644.01751 324.25716,637.86624 L 326.3432,444.69903 L 296.42614,444.69903 L 298.51218,637.86624 z" />
      <path
         style="fill:#803300;fill-opacity:1;fill-rule:nonzero;stroke:#000000;stroke-width:1;stroke-linecap:round;stroke-miterlimit:4;stroke-dashoffset:0;stroke-opacity:1"
         id="path2257"
         d="M 329.88947,409.86218 C 329.88947,409.86218 328.22064,377.31997 328.22064,358.96283 C 328.22064,340.60569 328.22064,318.91088 333.22713,311.40114 C 338.23362,303.8914 284.53572,303.8914 289.54221,311.40114 C 294.5487,318.91088 294.5487,340.60569 294.5487,358.96283 C 294.5487,377.31997 292.87987,409.86218 292.87987,409.86218" />
      <path
         style="fill:#ffe6d5;fill-opacity:1;fill-rule:nonzero;stroke:#000000;stroke-width:1;stroke-linecap:round;stroke-miterlimit:4;stroke-dashoffset:0;stroke-opacity:1"
         id="path2255"
         d="M 331.5583,301.38816 C 335.76,279.16107 338.53634,260.83737 326.55181,244.23069 L 296.21753,244.23069 C 284.233,260.83737 287.00934,279.16107 291.21104,301.38816" />
      <path
         style="fill:#803300;fill-opacity:1;fill-rule:nonzero;stroke:#000000;stroke-width:1;stroke-linecap:round;stroke-miterlimit:4;stroke-dashoffset:0;stroke-opacity:1"
         id="path2253"
         d="M 293.71429,435.72907 C 301.22403,444.07323 321.54531,444.07323 329.05505,435.72907 C 336.56479,427.38491 334.89596,415.70309 331.5583,411.53101 C 328.22064,407.35893 294.5487,407.35893 291.21104,411.53101 C 287.87338,415.70309 286.20455,427.38491 293.71429,435.72907 z" />
      <path
         style="fill:#803300;fill-opacity:1;fill-rule:nonzero;stroke:#000000;stroke-width:1;stroke-linecap:round;stroke-miterlimit:4;stroke-dashoffset:0;stroke-opacity:1"
         id="path2170"
         d="M 301.64123,685.32363 C 301.64123,681.98915 321.12811,681.98915 321.12811,685.32363 C 321.12811,688.65811 323.42186,687.27062 323.63135,690.43442 C 323.84547,693.66803 320.67727,696.27438 320.7109,701.38613 C 320.8152,717.03142 333.33143,726.10569 333.22713,730.69497 C 333.09376,736.43003 318.85384,738.72622 311.38467,738.72622 C 304.24878,738.72622 289.67558,736.43003 289.54221,730.69497 C 289.43791,726.10569 301.95414,717.03142 302.05844,701.38613 C 302.09207,696.27438 298.92387,693.66803 299.13799,690.43442 C 299.34748,687.27062 301.64123,688.65811 301.64123,685.32363 z" />
      <path
         d="M 293.91689,301.57309 L 329.18122,301.57309 C 331.93838,301.57309 334.15804,303.79275 334.15804,306.54991 C 334.15804,309.30707 333.72472,311.62597 330.96756,311.62597 L 291.5351,311.62597 C 288.77794,311.62597 288.94006,309.30707 288.94006,306.54991 C 288.94006,303.79275 291.15973,301.57309 293.91689,301.57309 z"
         style="fill:#ffe6d5;fill-opacity:1;fill-rule:nonzero;stroke:#000000;stroke-width:1;stroke-linecap:round;stroke-miterlimit:4;stroke-dashoffset:0;stroke-opacity:1"
         transform="translate(-0.1634825,0)"
         sodipodi:nodetypes="ccsccsc"
         id="rect2196" />
      <rect
         style="opacity:1;fill:#ffe6d5;fill-opacity:1;fill-rule:nonzero;stroke:#000000;stroke-width:1;stroke-linecap:round;stroke-miterlimit:4;stroke-dasharray:none;stroke-dashoffset:0;stroke-opacity:1"
         id="rect2198"
         width="41.236523"
         transform="translate(-0.1643775,0)"
         y="407.36609"
         ry="3.4126778"
         x="290.93079"
         height="6.8253555" />
      <path
         d="M 295.7654,434.38312 C 306.59522,437.19849 316.97623,436.87219 327.04828,434.38312 C 328.9389,434.38312 330.46096,435.90517 330.46096,437.7958 L 330.46096,441.77725 C 330.46096,443.66788 328.9389,445.18993 327.04828,445.18993 C 317.04376,447.30546 306.52602,446.8549 295.7654,445.18993 C 293.87478,445.18993 292.35272,443.66788 292.35272,441.77725 L 292.35272,437.7958 C 292.35272,435.90517 293.87478,434.38312 295.7654,434.38312 z"
         style="fill:#ffe6d5;fill-opacity:1;fill-rule:nonzero;stroke:#000000;stroke-width:1;stroke-linecap:round;stroke-miterlimit:4;stroke-dashoffset:0;stroke-opacity:1"
         transform="translate(-2.217e-2,0)"
         sodipodi:nodetypes="ccccccccc"
         id="rect2200" />
      <path
         d="M 299.46248,637.43744 C 307.14101,639.80774 314.81953,639.6157 322.49806,637.43744 C 324.38868,637.43744 325.91073,638.95949 325.91073,640.85012 L 325.91073,644.54718 C 325.91073,646.43781 324.38868,647.95986 322.49806,647.95986 C 314.39569,649.65523 306.80883,649.28857 299.46248,647.95986 C 297.57186,647.95986 296.0498,646.43781 296.0498,644.54718 L 296.0498,640.85012 C 296.0498,638.95949 297.57186,637.43744 299.46248,637.43744 z"
         style="fill:#ffe6d5;fill-opacity:1;fill-rule:nonzero;stroke:#000000;stroke-width:1;stroke-linecap:round;stroke-miterlimit:4;stroke-dashoffset:0;stroke-opacity:1"
         transform="translate(0.404405,0)"
         sodipodi:nodetypes="ccccccccc"
         id="rect2203" />
      <path
         d="M 298.6093,674.6925 C 307.23579,677.00851 314.72473,677.26035 324.48878,674.6925 C 326.3794,674.6925 327.90145,676.21456 327.90145,678.10518 L 327.90145,680.94908 C 327.90145,682.8397 326.3794,684.36176 324.48878,684.36176 C 315.86229,686.2885 307.23579,685.41176 298.6093,684.36176 C 296.71868,684.36176 295.19662,682.8397 295.19662,680.94908 L 295.19662,678.10518 C 295.19662,676.21456 296.71868,674.6925 298.6093,674.6925 z"
         style="fill:#ffe6d5;fill-opacity:1;fill-rule:nonzero;stroke:#000000;stroke-width:1;stroke-linecap:round;stroke-miterlimit:4;stroke-dashoffset:0;stroke-opacity:1"
         transform="translate(-0.164365,0)"
         sodipodi:nodetypes="ccccccccc"
         id="rect2206" />
      <path
         style="fill:#2b1100;fill-opacity:1;fill-rule:nonzero;stroke:#000000;stroke-width:1;stroke-linecap:round;stroke-miterlimit:4;stroke-dashoffset:0;stroke-opacity:1"
         id="path2249"
         d="M 304.44419,319.8958 C 304.60644,318.17715 304.66895,316.50511 304.50526,314.93939 L 304.50525,314.93939 L 317.58719,314.93939 C 317.60003,316.69462 317.83733,318.57971 318.14063,320.5096" />
      <path
         style="fill:#ffe6d5;fill-opacity:1;fill-rule:nonzero;stroke:#000000;stroke-width:1;stroke-linecap:round;stroke-miterlimit:4;stroke-dashoffset:0;stroke-opacity:1"
         id="rect2209"
         sodipodi:nodetypes="cccc"
         d="M 318.03472,319.90943 C 319.2346,327.54427 321.57332,336.48035 315.02769,340.25008 L 307.34915,340.25009 C 301.06601,335.98418 303.69237,327.45015 304.40889,319.8605" />
      <path
         style="opacity:1;fill:#2b1100;fill-opacity:1;fill-rule:nonzero;stroke:#000000;stroke-width:1;stroke-linecap:round;stroke-miterlimit:4;stroke-dasharray:none;stroke-dashoffset:0;stroke-opacity:1"
         id="path2214"
         sodipodi:cx="310.83807"
         sodipodi:cy="465.95038"
         sodipodi:type="arc"
         d="M 317.09465,465.95038 A 6.2565761,6.2565761 0 1 1 304.5815,465.95038 A 6.2565761,6.2565761 0 1 1 317.09465,465.95038 z"
         transform="translate(0.5465963,0)"
         sodipodi:rx="6.2565761"
         sodipodi:ry="6.2565761" />
      <path
         style="opacity:1;fill:#2b1100;fill-opacity:1;fill-rule:nonzero;stroke:#000000;stroke-width:1;stroke-linecap:round;stroke-miterlimit:4;stroke-dasharray:none;stroke-dashoffset:0;stroke-opacity:1"
         id="path2218"
         sodipodi:cx="310.83807"
         sodipodi:cy="465.95038"
         sodipodi:type="arc"
         d="M 317.09465,465.95038 A 6.2565761,6.2565761 0 1 1 304.5815,465.95038 A 6.2565761,6.2565761 0 1 1 317.09465,465.95038 z"
         transform="translate(0.5465963,34.695557)"
         sodipodi:rx="6.2565761"
         sodipodi:ry="6.2565761" />
      <path
         style="opacity:1;fill:#2b1100;fill-opacity:1;fill-rule:nonzero;stroke:#000000;stroke-width:1;stroke-linecap:round;stroke-miterlimit:4;stroke-dasharray:none;stroke-dashoffset:0;stroke-opacity:1"
         id="path2220"
         sodipodi:cx="310.83807"
         sodipodi:cy="465.95038"
         sodipodi:type="arc"
         d="M 317.09465,465.95038 A 6.2565761,6.2565761 0 1 1 304.5815,465.95038 A 6.2565761,6.2565761 0 1 1 317.09465,465.95038 z"
         transform="translate(0.5465963,71.950622)"
         sodipodi:rx="6.2565761"
         sodipodi:ry="6.2565761" />
      <path
         style="opacity:1;fill:#2b1100;fill-opacity:1;fill-rule:nonzero;stroke:#000000;stroke-width:1.51331234;stroke-linecap:round;stroke-miterlimit:4;stroke-dasharray:none;stroke-dashoffset:0;stroke-opacity:1"
         id="path2222"
         sodipodi:cx="310.83807"
         sodipodi:cy="465.95038"
         sodipodi:type="arc"
         d="M 317.09465,465.95038 A 6.2565761,6.2565761 0 1 1 304.5815,465.95038 A 6.2565761,6.2565761 0 1 1 317.09465,465.95038 z"
         transform="matrix(0.6608021,0,0,0.6608021,105.98223,260.71413)"
         sodipodi:rx="6.2565761"
         sodipodi:ry="6.2565761" />
      <path
         style="opacity:1;fill:#2b1100;fill-opacity:1;fill-rule:nonzero;stroke:#000000;stroke-width:1;stroke-linecap:round;stroke-miterlimit:4;stroke-dasharray:none;stroke-dashoffset:0;stroke-opacity:1"
         id="path2224"
         sodipodi:cx="310.83807"
         sodipodi:cy="465.95038"
         sodipodi:type="arc"
         d="M 317.09465,465.95038 A 6.2565761,6.2565761 0 1 1 304.5815,465.95038 A 6.2565761,6.2565761 0 1 1 317.09465,465.95038 z"
         transform="translate(0.5465963,136.50711)"
         sodipodi:rx="6.2565761"
         sodipodi:ry="6.2565761" />
      <g
         style="fill:#2b1100;fill-opacity:1;stroke:#000000;stroke-width:1;stroke-opacity:1"
         transform="translate(0.6888054,0)"
         id="g2233">
        <path
           style="opacity:1;fill:#2b1100;fill-opacity:1;fill-rule:nonzero;stroke:#000000;stroke-width:1.76000011;stroke-linecap:round;stroke-miterlimit:4;stroke-dasharray:none;stroke-dashoffset:0;stroke-opacity:1"
           id="path2216"
           sodipodi:cx="310.83807"
           sodipodi:cy="465.95038"
           sodipodi:type="arc"
           d="M 317.09465,465.95038 A 6.2565761,6.2565761 0 1 1 304.5815,465.95038 A 6.2565761,6.2565761 0 1 1 317.09465,465.95038 z"
           transform="matrix(0.5681818,0,0,0.5681818,130.10187,363.73462)"
           sodipodi:rx="6.2565761"
           sodipodi:ry="6.2565761" />
        <path
           style="opacity:1;fill:#2b1100;fill-opacity:1;fill-rule:nonzero;stroke:#000000;stroke-width:2.44444442;stroke-linecap:round;stroke-miterlimit:4;stroke-dasharray:none;stroke-dashoffset:0;stroke-opacity:1"
           id="path2228"
           sodipodi:cx="310.83807"
           sodipodi:cy="465.95038"
           sodipodi:type="arc"
           d="M 317.09465,465.95038 A 6.2565761,6.2565761 0 1 1 304.5815,465.95038 A 6.2565761,6.2565761 0 1 1 317.09465,465.95038 z"
           transform="matrix(0.4090909,0,0,0.4090909,188.51166,439.14284)"
           sodipodi:rx="6.2565761"
           sodipodi:ry="6.2565761" />
      </g>
      <g
         style="fill:#2b1100;fill-opacity:1;stroke:#000000;stroke-width:1.08659565;stroke-opacity:1"
         transform="matrix(0.8469623,0,0,1,44.828387,0)"
         id="g2237">
        <path
           style="opacity:1;fill:#2b1100;fill-opacity:1;fill-rule:nonzero;stroke:#000000;stroke-width:1.91240835;stroke-linecap:round;stroke-miterlimit:4;stroke-dasharray:none;stroke-dashoffset:0;stroke-opacity:1"
           id="path2226"
           sodipodi:cx="310.83807"
           sodipodi:cy="465.95038"
           sodipodi:type="arc"
           d="M 317.09465,465.95038 A 6.2565761,6.2565761 0 1 1 304.5815,465.95038 A 6.2565761,6.2565761 0 1 1 317.09465,465.95038 z"
           transform="matrix(0.5681818,0,0,0.5681818,128.96431,396.72384)"
           sodipodi:rx="6.2565761"
           sodipodi:ry="6.2565761" />
        <path
           style="opacity:1;fill:#2b1100;fill-opacity:1;fill-rule:nonzero;stroke:#000000;stroke-width:2.47580242;stroke-linecap:round;stroke-miterlimit:4;stroke-dasharray:none;stroke-dashoffset:0;stroke-opacity:1"
           id="path2230"
           sodipodi:cx="310.83807"
           sodipodi:cy="465.95038"
           sodipodi:type="arc"
           d="M 317.09465,465.95038 A 6.2565761,6.2565761 0 1 1 304.5815,465.95038 A 6.2565761,6.2565761 0 1 1 317.09465,465.95038 z"
           transform="matrix(0.4708517,0,0,0.4090909,168.84731,472.13208)"
           sodipodi:rx="6.2565761"
           sodipodi:ry="6.2565761" />
      </g>
    </g>
  </g>
</svg>
